# File created by Blade
# Date/Time:  Tue Apr 07 21:36:51 2015
#---------------------------------------------------------
:version 1.10
:name HOM
:units
  mass 1.0
  length 1.000000
  angle deg
:documentation
     Acclaim Skeleton File
:root
   axis xyz
   order TX TY TZ RX RY RZ
   position 0.000000 0.000000 0.000000
   orientation 0 0 0
:bonedata
   begin
      id 1
      name Spine_dum
      direction 0.000000 1.000000 0.000000
      length 4.885285
      axis 0.0 0.0 0.0 xyz
   end
   begin
      id 2
      name LeftUpLeg_dum
      direction 1.000000 0.000000 0.000000
      length 2.672193
      axis 0.0 0.0 0.0 xyz
   end
   begin
      id 3
      name RightUpLeg_dum
      direction -1.000000 0.000000 0.000000
      length 2.672193
      axis 0.0 0.0 0.0 xyz
   end
   begin
      id 4
      name Spine
      direction 0.000000 1.000000 0.000000
      length 0.000000
      axis 0.0 0.0 0.0 xyz
      dof rx ry rz
   end
   begin
      id 5
      name Spine_dum1
      direction 0.000000 1.000000 0.000000
      length 16.494159
      axis 0.0 0.0 0.0 xyz
   end
   begin
      id 6
      name Spine_dum2
      direction 0.000000 1.000000 0.000000
      length 10.663448
      axis 0.0 0.0 0.0 xyz
   end
   begin
      id 7
      name Spine_dum3
      direction 0.000000 1.000000 0.000000
      length 10.663448
      axis 0.0 0.0 0.0 xyz
   end
   begin
      id 8
      name Head
      direction 0.000000 1.000000 0.000000
      length 4.527550
      axis 0.0 0.0 0.0 xyz
      dof rx ry rz
   end
   begin
      id 9
      name LeftShoulder
      direction 1.000000 0.000000 0.000000
      length 7.531907
      axis 0.0 0.0 -90.0 xyz
      dof rx ry rz
   end
   begin
      id 10
      name LeftArm
      direction 1.000000 0.000000 0.000000
      length 10.229199
      axis 0.0 0.0 -90.0 xyz
      dof rx ry rz
   end
   begin
      id 11
      name LeftForeArm
      direction 1.000000 0.000000 0.000000
      length 8.673495
      axis 0.0 0.0 -90.0 xyz
      dof ry rz rx
   end
   begin
      id 12
      name LeftHand
      direction 0.000000 0.000000 0.000000
      length 0.000000
      axis 0.0 0.0 -90.0 xyz
      dof rx ry rz
   end
   begin
      id 13
      name LeftHand_dum1
      direction 0.000000 0.000000 0.000000
      length 0.000000
      axis 0.0 0.0 -90.0 xyz
   end
   begin
      id 14
      name LeftHand_dum2
      direction 1.000000 0.000000 0.000000
      length 3.937000
      axis 0.0 0.0 -90.0 xyz
   end
   begin
      id 15
      name LeftHandThumb1
      direction 0.000000 0.000000 1.000000
      length 3.937000
      axis 0.0 0.0 -90.0 xyz
      dof rx rz ry
   end
   begin
      id 16
      name RightShoulder
      direction -1.000000 0.000000 0.000000
      length 7.531907
      axis 0.0 0.0 90.0 xyz
      dof rx ry rz
   end
   begin
      id 17
      name RightArm
      direction -1.000000 0.000000 0.000000
      length 10.229199
      axis 0.0 0.0 90.0 xyz
      dof rx ry rz
   end
   begin
      id 18
      name RightForeArm
      direction -1.000000 0.000000 0.000000
      length 8.673495
      axis 0.0 0.0 90.0 xyz
      dof ry rz rx
   end
   begin
      id 19
      name RightHand
      direction 0.000000 0.000000 0.000000
      length 0.000000
      axis 0.0 0.0 90.0 xyz
      dof rx ry rz
   end
   begin
      id 20
      name RightHand_dum1
      direction 0.000000 0.000000 0.000000
      length 0.000000
      axis 0.0 0.0 90.0 xyz
   end
   begin
      id 21
      name RightHand_dum2
      direction -1.000000 0.000000 0.000000
      length 3.937000
      axis 0.0 0.0 90.0 xyz
   end
   begin
      id 22
      name RightHandThumb1
      direction 0.000000 0.000000 1.000000
      length 3.937000
      axis 0.0 0.0 90.0 xyz
      dof rx rz ry
   end
   begin
      id 23
      name LeftUpLeg
      direction 0.000000 -1.000000 0.000000
      length 16.263388
      axis 0.0 0.0 0.0 xyz
      dof rx ry rz
   end
   begin
      id 24
      name LeftLeg
      direction 0.000000 -1.000000 0.000000
      length 14.328163
      axis 0.0 0.0 0.0 xyz
      dof rx ry rz
   end
   begin
      id 25
      name LeftFoot
      direction 0.000000 -0.258819 0.965926
      length 5.031290
      axis 15.0 0.0 0.0 xyz
      dof rx ry rz
   end
   begin
      id 26
      name LeftToeBase
      direction 0.000000 0.000000 1.000000
      length 2.952750
      axis 0.0 0.0 0.0 xyz
      dof rx ry rz
   end
   begin
      id 27
      name RightUpLeg
      direction 0.000000 -1.000000 0.000000
      length 16.263388
      axis 0.0 0.0 0.0 xyz
      dof rx ry rz
   end
   begin
      id 28
      name RightLeg
      direction 0.000000 -1.000000 0.000000
      length 14.328163
      axis 0.0 0.0 0.0 xyz
      dof rx ry rz
   end
   begin
      id 29
      name RightFoot
      direction 0.000000 -0.258819 0.965926
      length 5.031290
      axis 15.0 0.0 0.0 xyz
      dof rx ry rz
   end
   begin
      id 30
      name RightToeBase
      direction 0.000000 0.000000 1.000000
      length 2.952750
      axis 0.0 0.0 0.0 xyz
      dof rx ry rz
   end
:hierarchy
   begin
      root Spine_dum LeftUpLeg_dum RightUpLeg_dum
      Spine_dum Spine
      LeftUpLeg_dum LeftUpLeg
      RightUpLeg_dum RightUpLeg
      Spine Spine_dum1 Spine_dum2 Spine_dum3
      Spine_dum1 Head
      Spine_dum2 LeftShoulder
      Spine_dum3 RightShoulder
      LeftShoulder LeftArm
      LeftArm LeftForeArm
      LeftForeArm LeftHand
      LeftHand LeftHand_dum1 LeftHand_dum2
      LeftHand_dum1 LeftHandThumb1
      RightShoulder RightArm
      RightArm RightForeArm
      RightForeArm RightHand
      RightHand RightHand_dum1 RightHand_dum2
      RightHand_dum1 RightHandThumb1
      LeftUpLeg LeftLeg
      LeftLeg LeftFoot
      LeftFoot LeftToeBase
      RightUpLeg RightLeg
      RightLeg RightFoot
      RightFoot RightToeBase
   end

# File created by Blade
# Date/Time:  Tue Apr 07 21:36:59 2015
# Frame Rate: 120.000 fps
#------------------------------------------------------
:FULLY-SPECIFIED
:DEGREES
125
root -2.557493 33.190205 9.070055 7.414307 -41.066219 -2.714505
Spine -0.931928 -9.631659 4.425989
Head 29.285920 -20.011384 0.194428
LeftShoulder -18.190760 46.291570 3.852972
LeftArm 51.621939 4.229869 -89.116177
LeftForeArm -6.459708 -0.000000 5.370197
LeftHand 6.035508 -0.000000 0.027926
LeftHandThumb1 -26.253704 0.000000 33.147579
RightShoulder -6.159576 -9.278743 -15.625163
RightArm 17.802491 -15.176647 87.314399
RightForeArm -0.128227 -0.000000 11.841859
RightHand 5.762349 -0.000000 0.812942
RightHandThumb1 -24.326973 -0.000000 -32.862282
LeftUpLeg -11.789840 -4.958399 9.251708
LeftLeg 34.259566 -0.000000 -0.000000
LeftFoot -15.108843 4.485762 -24.961331
LeftToeBase -9.761878 -0.000000 0.000000
RightUpLeg -7.547766 14.965433 -1.422499
RightLeg 9.625282 -0.000000 -0.000000
RightFoot -3.867025 3.544993 9.589099
RightToeBase -11.863958 -0.000000 0.000000
126
root -2.472699 33.204081 9.126667 7.412553 -42.326388 -2.498531
Spine -0.881499 -9.804829 4.302568
Head 29.385707 -19.354175 -0.067667
LeftShoulder -18.211173 46.236924 3.796854
LeftArm 51.706822 4.455190 -88.948206
LeftForeArm -6.313196 -0.000000 5.481328
LeftHand 6.069207 -0.000000 -0.154700
LeftHandThumb1 -26.253704 0.000000 33.147579
RightShoulder -6.017631 -9.349880 -15.693708
RightArm 17.723215 -15.628291 87.514930
RightForeArm -0.112557 -0.000000 11.902285
RightHand 5.854884 -0.000000 0.934625
RightHandThumb1 -24.326973 -0.000000 -32.862282
LeftUpLeg -11.600796 -5.312080 9.319600
LeftLeg 33.640811 -0.000000 -0.000000
LeftFoot -14.956002 4.557863 -25.103233
LeftToeBase -9.629701 -0.000000 0.000000
RightUpLeg -8.005985 15.155607 -1.821148
RightLeg 9.952349 -0.000000 -0.000000
RightFoot -3.710773 3.635086 9.226606
RightToeBase -12.354715 -0.000000 0.000000
127
root -2.384612 33.217819 9.183993 7.386152 -43.541204 -2.289296
Spine -0.800216 -9.985612 4.196540
Head 29.458863 -18.756472 -0.363773
LeftShoulder -18.082819 46.141244 3.853327
LeftArm 51.704345 4.350423 -89.125491
LeftForeArm -5.870232 -0.000000 5.575636
LeftHand 6.078957 -0.000000 -0.084390
LeftHandThumb1 -26.253704 0.000000 33.147579
RightShoulder -5.892312 -9.422883 -15.776104
RightArm 17.635328 -15.998966 87.705332
RightForeArm -0.121309 -0.000000 11.992485
RightHand 5.509554 -0.000000 1.308670
RightHandThumb1 -24.326973 -0.000000 -32.862282
LeftUpLeg -11.381680 -5.651572 9.400442
LeftLeg 33.019907 -0.000000 -0.000000
LeftFoot -14.765415 4.617035 -25.189334
LeftToeBase -9.894247 -0.000000 0.000000
RightUpLeg -8.440885 15.534506 -2.229844
RightLeg 10.257678 -0.000000 -0.000000
RightFoot -3.523941 3.637804 9.006965
RightToeBase -13.025186 -0.000000 0.000000
128
root -2.299573 33.233246 9.243361 7.311977 -44.808632 -2.097910
Spine -0.665434 -10.090640 4.043845
Head 29.571679 -18.227138 -0.590370
LeftShoulder -18.066104 46.174926 3.828456
LeftArm 51.809007 4.420477 -88.915867
LeftForeArm -5.953412 -0.000000 5.853779
LeftHand 5.911145 -0.000000 -0.163415
LeftHandThumb1 -26.253704 0.000000 33.147579
RightShoulder -5.764938 -9.520825 -15.802097
RightArm 17.543044 -16.377990 87.794968
RightForeArm -0.023284 -0.000000 12.169759
RightHand 5.239971 -0.000000 1.272450
RightHandThumb1 -24.326973 -0.000000 -32.862282
LeftUpLeg -11.060100 -5.909000 9.478316
LeftLeg 32.380345 -0.000000 -0.000000
LeftFoot -14.616992 4.670936 -25.295169
LeftToeBase -9.671683 -0.000000 0.000000
RightUpLeg -8.822232 16.008332 -2.607529
RightLeg 10.570804 -0.000000 -0.000000
RightFoot -3.328413 3.554400 8.715208
RightToeBase -13.749465 -0.000000 0.000000
129
root -2.237059 33.250345 9.301360 7.290382 -46.002116 -2.093795
Spine -0.489675 -10.246878 4.028841
Head 29.702935 -17.634129 -0.875883
LeftShoulder -17.976646 46.227173 3.846374
LeftArm 51.892036 4.277190 -88.877334
LeftForeArm -5.878317 0.000000 6.009115
LeftHand 5.836338 -0.000000 0.231324
LeftHandThumb1 -26.253704 0.000000 33.147579
RightShoulder -5.695204 -9.676964 -15.816982
RightArm 17.561535 -16.669976 87.892691
RightForeArm 0.231580 -0.000000 12.130358
RightHand 5.118412 -0.000000 1.420479
RightHandThumb1 -24.326973 -0.000000 -32.862282
LeftUpLeg -10.624258 -6.080495 9.723086
LeftLeg 31.738132 -0.000000 -0.000000
LeftFoot -14.448309 4.619333 -25.370644
LeftToeBase -9.638507 -0.000000 0.000000
RightUpLeg -9.039574 16.553376 -2.778564
RightLeg 10.741506 -0.000000 -0.000000
RightFoot -3.075089 3.252701 8.473635
RightToeBase -14.403631 -0.000000 0.000000
